<svg width="168" height="56" viewBox="0 0 168 56" fill="none" xmlns="http://www.w3.org/2000/svg">
<g clip-path="url(#clip0_660_1770)">
<path d="M26.4172 38.5351C24.7061 38.7755 23.3052 38.6905 22.2144 38.2797C21.1238 37.869 20.3799 37.1543 19.9826 36.1354C19.5852 35.106 19.5471 33.8079 19.8681 32.241L20.4534 29.4614C20.7746 27.916 21.3693 26.5501 22.2375 25.364C23.1057 24.1673 24.2054 23.1988 25.537 22.4583C26.8687 21.7071 28.3899 21.2113 30.1012 20.9709C31.8123 20.7304 33.2132 20.8155 34.304 21.2262C35.3944 21.6262 36.1383 22.3356 36.5356 23.3546C36.9326 24.3627 36.9706 25.6396 36.6495 27.1851L36.0646 30.0127C35.7315 31.5704 35.1309 32.9477 34.2629 34.1444C33.4066 35.3288 32.3128 36.2965 30.9814 37.0477C29.6497 37.7986 28.1285 38.2945 26.4172 38.5351ZM27.3116 34.1955C28.3118 34.055 29.1405 33.6832 29.7979 33.08C30.4669 32.4647 30.905 31.6741 31.1118 30.7087L31.6968 27.8812C31.9035 26.9264 31.7813 26.2253 31.3299 25.7781C30.8905 25.329 30.1708 25.1747 29.1707 25.3154C28.1824 25.4543 27.3598 25.8252 26.7025 26.4284C26.0453 27.0316 25.6132 27.8104 25.4062 28.7654L24.8214 31.5928C24.6145 32.5583 24.7249 33.2717 25.1524 33.7329C25.5916 34.182 26.3115 34.3362 27.3116 34.1955Z" fill="white"/>
<path d="M41.9184 31.9285L53.0139 19.6117L58.2833 18.8646L41.5348 36.8694L41.9184 31.9285ZM43.3298 14.2535L48.3085 13.5476L43.2734 37.7878L38.2948 38.4938L43.3298 14.2535ZM46.9415 28.5951L51.515 25.7463L55.6109 36.0388L49.851 36.8554L46.9415 28.5951Z" fill="white"/>
<path d="M65.4415 36.9924C63.6321 37.247 62.1455 37.1683 60.9814 36.756C59.8291 36.3315 59.0361 35.5949 58.6019 34.5463C58.1677 33.4872 58.1169 32.1502 58.4499 30.5349L58.8457 28.6066C59.2019 26.9134 59.826 25.4226 60.7182 24.134C61.6223 22.8437 62.7585 21.7983 64.127 20.9975C65.4955 20.1966 67.0542 19.6731 68.803 19.4269C70.4434 19.1959 71.7682 19.3721 72.7771 19.9556C73.786 20.5391 74.4487 21.502 74.7653 22.8444C75.0817 24.1762 75.0272 25.8483 74.6021 27.8607L74.3605 28.9829L61.5149 30.7916L62.1524 27.741L70.4749 26.5692L70.5069 26.1806C70.581 25.2101 70.398 24.4943 69.9582 24.0333C69.5304 23.5708 68.8581 23.4041 67.9415 23.533C66.7473 23.7013 65.7497 24.1565 64.9483 24.8987C64.159 25.6394 63.644 26.6027 63.4032 27.789L62.9374 29.9671C62.6964 31.1319 62.8687 31.9825 63.4542 32.5188C64.0399 33.0552 64.9779 33.2326 66.2686 33.0509C66.9319 32.9575 67.6123 32.7604 68.3097 32.4595C69.007 32.1479 69.6612 31.7571 70.2722 31.287L72.9591 33.4533C71.8099 34.4047 70.58 35.1912 69.2702 35.8132C67.96 36.4244 66.6838 36.8175 65.4415 36.9924Z" fill="white"/>
<path d="M80.2893 19.9499L85.6042 19.2026L82.0231 36.2813L76.7079 37.0285L80.2893 19.9499ZM89.8485 23.221C89.6532 23.0354 89.3925 22.9124 89.0659 22.8519C88.7393 22.7912 88.3469 22.7933 87.8891 22.8577C86.8887 22.9982 86.0481 23.4039 85.3673 24.0745C84.6984 24.7327 84.2551 25.5827 84.037 26.6247L84.5869 22.236C85.3236 21.1425 86.165 20.2577 87.1112 19.5817C88.0573 18.8952 89.0246 18.4824 90.0128 18.3433C90.7963 18.2334 91.4784 18.2492 92.0595 18.391C92.6401 18.5222 93.1198 18.7742 93.4979 19.147L89.8485 23.221Z" fill="white"/>
<path d="M99.1503 35.6067C98.0337 35.7623 96.9639 35.8273 95.9414 35.8016C94.9308 35.7636 93.9973 35.6362 93.1412 35.419C92.2849 35.202 91.554 34.899 90.9484 34.5102L94.7308 30.6554C95.5167 31.0506 96.3736 31.3202 97.3011 31.4643C98.2289 31.6083 99.1369 31.6186 100.025 31.4946C101.178 31.334 102.096 31.0958 102.778 30.78C103.46 30.4537 103.846 30.0843 103.938 29.672C104.018 29.2929 103.937 29.0255 103.695 28.8701C103.465 28.7128 103.139 28.6268 102.718 28.6119C102.309 28.5848 101.72 28.5933 100.95 28.6374C100.746 28.6449 100.53 28.654 100.301 28.6648C100.085 28.6739 99.8685 28.683 99.6523 28.6922C99.6041 28.6884 99.5499 28.6907 99.49 28.699C99.4418 28.6953 99.3938 28.6966 99.3456 28.7033C97.987 28.735 96.9101 28.6905 96.1151 28.5701C95.3321 28.4478 94.7209 28.0914 94.2815 27.5009C93.8419 26.8995 93.7594 25.9543 94.034 24.6649C94.2742 23.538 94.7745 22.5324 95.5344 21.6486C96.3066 20.7629 97.3088 20.0345 98.5412 19.4631C99.7736 18.8813 101.2 18.4774 102.822 18.2517C103.77 18.1194 104.696 18.0745 105.598 18.1171C106.501 18.1596 107.35 18.283 108.146 18.4875C108.942 18.692 109.66 18.9705 110.302 19.3226L106.679 22.9659C105.954 22.6674 105.17 22.4664 104.328 22.3631C103.484 22.2598 102.655 22.265 101.838 22.3787C100.842 22.5175 100.044 22.7286 99.4459 23.0119C98.8477 23.2949 98.5144 23.6199 98.4463 23.9869C98.3772 24.27 98.4757 24.4717 98.7416 24.5925C99.0074 24.7025 99.3508 24.7652 99.7719 24.7801C100.193 24.7844 100.812 24.7717 101.63 24.7419C101.738 24.7375 101.846 24.7328 101.954 24.7282C102.062 24.7237 102.171 24.7191 102.279 24.7146C102.315 24.72 102.363 24.7187 102.423 24.7103C102.483 24.7019 102.537 24.6995 102.585 24.7034C104.004 24.653 105.147 24.683 106.014 24.7933C106.881 24.9039 107.558 25.272 108.046 25.8981C108.534 26.524 108.635 27.5297 108.35 28.9153C108.098 30.0859 107.568 31.1323 106.76 32.0544C105.965 32.9749 104.921 33.7408 103.629 34.352C102.336 34.9526 100.844 35.3709 99.1503 35.6067Z" fill="white"/>
<path d="M134.261 23.5857C134.465 22.649 134.362 21.9634 133.952 21.5286C133.554 21.0822 132.878 20.9227 131.927 21.0501C130.987 21.176 130.21 21.5197 129.597 22.0814C128.984 22.6332 128.575 23.3576 128.371 24.2542L128.276 20.6692C129.086 19.5715 130.017 18.6873 131.07 18.0167C132.135 17.3346 133.238 16.9172 134.38 16.7642C135.713 16.5859 136.786 16.7071 137.601 17.1277C138.428 17.5466 138.973 18.2482 139.234 19.2326C139.507 20.2154 139.479 21.4432 139.151 22.9163L137.111 32.1835L132.222 32.838L134.261 23.5857ZM114.164 19.6949L119.053 19.0405L115.518 35.0736L110.628 35.7282L114.164 19.6949ZM123.464 25.0309C123.668 24.0942 123.559 23.4093 123.137 22.976C122.715 22.5329 122.016 22.3766 121.041 22.507C120.137 22.6282 119.39 22.9429 118.8 23.4515C118.209 23.9503 117.824 24.5967 117.642 25.3904L118.049 21.8882C118.823 20.8251 119.677 19.9813 120.612 19.3565C121.546 18.7318 122.566 18.3454 123.673 18.1974C124.981 18.0221 126.037 18.1457 126.84 18.5678C127.655 18.9884 128.194 19.691 128.455 20.6753C128.716 21.6597 128.683 22.8884 128.354 24.3614L126.315 33.6286L121.425 34.283L123.464 25.0309Z" fill="white"/>
<path d="M144.791 27.9851L155.887 15.6683L161.156 14.9213L144.408 32.926L144.791 27.9851ZM146.203 10.3102L151.181 9.60425L146.146 33.8447L141.168 34.5504L146.203 10.3102ZM149.814 24.6517L154.388 21.8029L158.484 32.0954L152.724 32.9121L149.814 24.6517Z" fill="white"/>
<path d="M10.6789 0.217285L20.4813 0.297868L8.43045 44.8638H0.633331L10.6789 0.217285ZM8.44907 53.9576L145.305 42.4437L143.08 50.4366L8.43045 44.8638H0.633331L8.44907 53.9576Z" fill="white"/>
<path d="M167.799 46.1355L158.269 50.8754L148.739 55.6155L151.462 46.1355L154.184 36.6558L160.992 41.3956L167.799 46.1355Z" fill="white"/>
<path d="M161.504 46.1359L153.83 49.9523L156.022 42.3193L161.504 46.1359Z" fill="#3278FF"/>
<path d="M147.073 42.321L144.793 50.5302L147.669 54.9624L152.598 37.438L147.073 42.321Z" fill="white"/>
<path d="M10.6789 0.217285L1.77902 8.53235L11.0833 8.04865L10.6789 0.217285Z" fill="white"/>
<path d="M81.9512 50.3065C83.4316 50.3065 84.6316 49.1005 84.6316 47.6127C84.6316 46.1249 83.4316 44.9189 81.9512 44.9189C80.4709 44.9189 79.2709 46.1249 79.2709 47.6127C79.2709 49.1005 80.4709 50.3065 81.9512 50.3065Z" fill="white"/>
<path d="M146.307 43.461L151.881 40.8647L151.853 43.1448L146.148 44.2836L146.307 43.461Z" fill="#3278FF"/>
</g>
<defs>
<clipPath id="clip0_660_1770">
<rect width="168" height="56" fill="white"/>
</clipPath>
</defs>
</svg>
