<svg width="168" height="56" viewBox="0 0 168 56" fill="none" xmlns="http://www.w3.org/2000/svg">
<path d="M10.6789 0.217178L20.4814 0.297761L8.43049 44.8637H0.633362L10.6789 0.217178ZM8.4491 53.9575L145.305 42.4435L143.08 50.4365L8.43049 44.8637H0.633362L8.4491 53.9575Z" fill="#39AEFF"/>
<path d="M26.4172 38.535C24.7061 38.7755 23.3052 38.6904 22.2144 38.2797C21.1238 37.8689 20.3799 37.1543 19.9826 36.1353C19.5852 35.1059 19.5471 33.8078 19.8681 32.2409L20.4534 29.4614C20.7746 27.9159 21.3693 26.55 22.2375 25.364C23.1057 24.1673 24.2054 23.1987 25.537 22.4582C26.8687 21.7071 28.3899 21.2113 30.1012 20.9708C31.8123 20.7303 33.2132 20.8154 34.304 21.2261C35.3944 21.6261 36.1383 22.3356 36.5356 23.3545C36.9326 24.3627 36.9706 25.6396 36.6495 27.1851L36.0646 30.0126C35.7315 31.5704 35.1309 32.9476 34.2629 34.1443C33.4066 35.3287 32.3128 36.2965 30.9814 37.0476C29.6497 37.7986 28.1285 38.2944 26.4172 38.535ZM27.3116 34.1955C28.3118 34.055 29.1405 33.6831 29.7979 33.0799C30.4669 32.4647 30.905 31.6741 31.1118 30.7087L31.6968 27.8811C31.9035 26.9264 31.7813 26.2253 31.3299 25.7781C30.8905 25.329 30.1708 25.1747 29.1707 25.3154C28.1824 25.4542 27.3598 25.8251 26.7025 26.4283C26.0453 27.0315 25.6132 27.8104 25.4062 28.7653L24.8214 31.5927C24.6145 32.5583 24.7249 33.2716 25.1524 33.7328C25.5916 34.1819 26.3115 34.3362 27.3116 34.1955Z" fill="#263238"/>
<path d="M41.9184 31.9285L53.0139 19.6116L58.2833 18.8646L41.5348 36.8693L41.9184 31.9285ZM43.3298 14.2535L48.3085 13.5476L43.2734 37.7878L38.2948 38.4937L43.3298 14.2535ZM46.9415 28.595L51.515 25.7462L55.6109 36.0387L49.851 36.8554L46.9415 28.595Z" fill="#263238"/>
<path d="M65.4415 36.9924C63.6321 37.247 62.1455 37.1682 60.9814 36.756C59.8291 36.3315 59.0361 35.5949 58.6019 34.5463C58.1677 33.4872 58.1169 32.1501 58.4499 30.5349L58.8457 28.6066C59.2019 26.9133 59.826 25.4226 60.7182 24.1339C61.6223 22.8436 62.7585 21.7983 64.127 20.9974C65.4955 20.1966 67.0542 19.6731 68.803 19.4268C70.4434 19.1959 71.7682 19.3721 72.7771 19.9556C73.786 20.539 74.4487 21.502 74.7653 22.8444C75.0817 24.1762 75.0272 25.8482 74.6021 27.8606L74.3605 28.9829L61.5149 30.7915L62.1524 27.741L70.4749 26.5692L70.5069 26.1806C70.581 25.21 70.398 24.4943 69.9582 24.0333C69.5304 23.5708 68.8581 23.404 67.9415 23.533C66.7473 23.7012 65.7497 24.1565 64.9483 24.8987C64.159 25.6394 63.644 26.6027 63.4032 27.789L62.9374 29.967C62.6964 31.1319 62.8687 31.9824 63.4542 32.5188C64.0399 33.0552 64.9779 33.2326 66.2686 33.0509C66.9319 32.9575 67.6123 32.7604 68.3097 32.4594C69.007 32.1479 69.6612 31.7571 70.2722 31.2869L72.9591 33.4533C71.8099 34.4047 70.58 35.1912 69.2702 35.8132C67.96 36.4244 66.6838 36.8174 65.4415 36.9924Z" fill="#263238"/>
<path d="M80.2893 19.9498L85.6042 19.2026L82.0231 36.2812L76.7079 37.0285L80.2893 19.9498ZM89.8485 23.2209C89.6532 23.0353 89.3925 22.9123 89.0659 22.8518C88.7393 22.7912 88.3469 22.7932 87.8891 22.8576C86.8887 22.9981 86.0481 23.4038 85.3673 24.0744C84.6984 24.7327 84.2551 25.5826 84.037 26.6247L84.5869 22.236C85.3236 21.1424 86.165 20.2576 87.1112 19.5817C88.0573 18.8951 89.0246 18.4823 90.0128 18.3433C90.7963 18.2333 91.4784 18.2491 92.0595 18.3909C92.6401 18.5221 93.1198 18.7741 93.4979 19.1469L89.8485 23.2209Z" fill="#263238"/>
<path d="M99.1503 35.6068C98.0337 35.7624 96.9639 35.8273 95.9414 35.8016C94.9308 35.7637 93.9973 35.6362 93.1412 35.419C92.2849 35.202 91.554 34.899 90.9484 34.5102L94.7308 30.6555C95.5167 31.0506 96.3736 31.3203 97.3011 31.4643C98.2289 31.6084 99.1369 31.6186 100.025 31.4946C101.178 31.334 102.096 31.0958 102.778 30.78C103.46 30.4537 103.846 30.0843 103.938 29.6721C104.018 29.2929 103.937 29.0255 103.695 28.8701C103.465 28.7128 103.139 28.6269 102.718 28.612C102.309 28.5848 101.72 28.5933 100.95 28.6375C100.746 28.6449 100.53 28.654 100.301 28.6648C100.085 28.6739 99.8685 28.6831 99.6523 28.6922C99.6041 28.6885 99.5499 28.6907 99.49 28.6991C99.4418 28.6953 99.3938 28.6966 99.3456 28.7033C97.987 28.735 96.9101 28.6905 96.1151 28.5701C95.3321 28.4478 94.7209 28.0914 94.2815 27.5009C93.8419 26.8996 93.7594 25.9543 94.034 24.6649C94.2742 23.538 94.7745 22.5325 95.5344 21.6486C96.3066 20.7629 97.3088 20.0345 98.5412 19.4631C99.7736 18.8813 101.2 18.4775 102.822 18.2517C103.77 18.1194 104.696 18.0745 105.598 18.1172C106.501 18.1596 107.35 18.283 108.146 18.4875C108.942 18.6921 109.66 18.9705 110.302 19.3226L106.679 22.9659C105.954 22.6674 105.17 22.4664 104.328 22.3631C103.484 22.2598 102.655 22.265 101.838 22.3787C100.842 22.5176 100.044 22.7286 99.4459 23.0119C98.8477 23.295 98.5144 23.6199 98.4463 23.9869C98.3772 24.27 98.4757 24.4717 98.7416 24.5925C99.0074 24.7025 99.3508 24.7652 99.7719 24.7801C100.193 24.7844 100.812 24.7718 101.63 24.742C101.738 24.7375 101.846 24.7329 101.954 24.7282C102.062 24.7237 102.171 24.7191 102.279 24.7146C102.315 24.72 102.363 24.7187 102.423 24.7103C102.483 24.702 102.537 24.6995 102.585 24.7034C104.004 24.653 105.147 24.683 106.014 24.7933C106.881 24.9039 107.558 25.272 108.046 25.8981C108.534 26.524 108.635 27.5297 108.35 28.9153C108.098 30.086 107.568 31.1323 106.76 32.0545C105.965 32.975 104.921 33.7408 103.629 34.352C102.336 34.9526 100.844 35.371 99.1503 35.6068Z" fill="#263238"/>
<path d="M134.261 23.5857C134.465 22.649 134.362 21.9633 133.952 21.5286C133.554 21.0821 132.878 20.9226 131.927 21.0501C130.987 21.1759 130.21 21.5196 129.597 22.0813C128.984 22.6331 128.575 23.3575 128.371 24.2542L128.276 20.6691C129.086 19.5714 130.017 18.6872 131.07 18.0167C132.135 17.3346 133.238 16.9171 134.38 16.7641C135.713 16.5858 136.786 16.707 137.601 17.1276C138.428 17.5465 138.973 18.2482 139.234 19.2325C139.507 20.2154 139.479 21.4432 139.151 22.9162L137.111 32.1834L132.222 32.838L134.261 23.5857ZM114.164 19.6948L119.053 19.0405L115.518 35.0736L110.628 35.7281L114.164 19.6948ZM123.464 25.0308C123.668 24.0941 123.559 23.4092 123.137 22.976C122.715 22.5328 122.016 22.3765 121.041 22.507C120.137 22.6281 119.39 22.9428 118.8 23.4515C118.209 23.9503 117.824 24.5966 117.642 25.3904L118.049 21.8881C118.823 20.8251 119.677 19.9812 120.612 19.3565C121.546 18.7317 122.566 18.3453 123.673 18.1974C124.981 18.0221 126.037 18.1456 126.84 18.5677C127.655 18.9883 128.194 19.6909 128.455 20.6753C128.716 21.6596 128.683 22.8883 128.354 24.3614L126.315 33.6286L121.425 34.283L123.464 25.0308Z" fill="#263238"/>
<path d="M144.791 27.9851L155.887 15.6683L161.156 14.9213L144.408 32.926L144.791 27.9851ZM146.203 10.3102L151.181 9.60425L146.146 33.8447L141.168 34.5504L146.203 10.3102ZM149.814 24.6517L154.388 21.8029L158.484 32.0954L152.724 32.9121L149.814 24.6517Z" fill="#263238"/>
<path d="M167.799 46.1356L158.269 50.8755L148.739 55.6156L151.462 46.1356L154.184 36.6559L160.992 41.3957L167.799 46.1356Z" fill="#39AEFF"/>
<path d="M161.504 46.1358L153.83 49.9522L156.022 42.3192L161.504 46.1358Z" fill="white"/>
<path d="M147.073 42.3211L144.793 50.5303L147.669 54.9625L152.598 37.4381L147.073 42.3211Z" fill="#39AEFF"/>
<path d="M10.6789 0.217178L1.77905 8.53225L11.0833 8.04854L10.6789 0.217178Z" fill="#39AEFF"/>
<path d="M81.9512 50.3064C83.4316 50.3064 84.6316 49.1004 84.6316 47.6126C84.6316 46.1248 83.4316 44.9188 81.9512 44.9188C80.4709 44.9188 79.2709 46.1248 79.2709 47.6126C79.2709 49.1004 80.4709 50.3064 81.9512 50.3064Z" fill="#FF0000"/>
<path d="M146.307 43.461L151.881 40.8648L151.853 43.1448L146.148 44.2836L146.307 43.461Z" fill="white"/>
</svg>
