<svg width="26" height="24" viewBox="0 0 26 24" fill="none" xmlns="http://www.w3.org/2000/svg">
<path d="M15.027 12.71C15.9647 11.9387 16.6492 10.8809 16.9852 9.68394C17.3212 8.48697 17.2919 7.21027 16.9015 6.03147C16.5112 4.85267 15.779 3.83039 14.807 3.10686C13.835 2.38332 12.6715 1.99451 11.4783 1.99451C10.2851 1.99451 9.12151 2.38332 8.14951 3.10686C7.17751 3.83039 6.44539 4.85267 6.055 6.03147C5.66461 7.21027 5.63537 8.48697 5.97135 9.68394C6.30733 10.8809 6.99181 11.9387 7.92958 12.71C6.3227 13.383 4.92064 14.4994 3.87287 15.9399C2.8251 17.3805 2.1709 19.0913 1.98001 20.89C1.9662 21.0213 1.97725 21.1542 2.01256 21.2811C2.04786 21.4079 2.10672 21.5263 2.18577 21.6293C2.34542 21.8375 2.57763 21.9708 2.83132 22C3.085 22.0292 3.33938 21.9518 3.5385 21.7849C3.73761 21.618 3.86515 21.3752 3.89306 21.11C4.10309 19.1552 4.99467 17.3498 6.39744 16.0388C7.80021 14.7278 9.61583 14.003 11.4974 14.003C13.379 14.003 15.1946 14.7278 16.5974 16.0388C18.0001 17.3498 18.8917 19.1552 19.1018 21.11C19.1278 21.3557 19.2399 21.5827 19.4166 21.747C19.5932 21.9114 19.8218 22.0015 20.0583 22H20.1635C20.4142 21.9698 20.6434 21.8373 20.8011 21.6313C20.9587 21.4252 21.0321 21.1624 21.0052 20.9C20.8134 19.0962 20.1557 17.381 19.1026 15.9382C18.0494 14.4954 16.6405 13.3795 15.027 12.71V12.71ZM11.4783 12C10.7215 12 9.98181 11.7654 9.35261 11.3259C8.72342 10.8864 8.23302 10.2616 7.94343 9.53074C7.65384 8.79983 7.57807 7.99557 7.7257 7.21964C7.87333 6.44372 8.23773 5.73099 8.77282 5.17158C9.30791 4.61217 9.98965 4.2312 10.7318 4.07686C11.474 3.92252 12.2433 4.00173 12.9425 4.30448C13.6416 4.60724 14.2391 5.11993 14.6595 5.77772C15.08 6.43552 15.3044 7.20888 15.3044 8C15.3044 9.06087 14.9013 10.0783 14.1837 10.8284C13.4662 11.5786 12.493 12 11.4783 12Z" fill="#1D262D"/>
<path d="M13.5 15.5C13.5 15.5 14.5 14 15.5 14C16.5 14 16.0625 14 17 14C17.9375 14 17 13.3874 17 13C17 12.5634 18.301 13.0435 18.301 13.0435L22.1538 17.2174L21.1906 22.9565H12.5217C12.5217 22.9565 13 16 13.5 15.5Z" fill="white"/>
<path d="M22.6354 14.6087H21.1906V14.0869C21.1906 13.8102 21.0891 13.5448 20.9085 13.3491C20.7278 13.1534 20.4828 13.0435 20.2274 13.0435H18.301C18.0455 13.0435 17.8005 13.1534 17.6199 13.3491C17.4392 13.5448 17.3378 13.8102 17.3378 14.0869V14.6087H15.8929C15.5097 14.6087 15.1423 14.7736 14.8713 15.0671C14.6003 15.3607 14.4481 15.7588 14.4481 16.1739V20.8695C14.4481 21.2847 14.6003 21.6828 14.8713 21.9763C15.1423 22.2699 15.5097 22.4348 15.8929 22.4348H22.6354C23.0186 22.4348 23.3861 22.2699 23.6571 21.9763C23.928 21.6828 24.0802 21.2847 24.0802 20.8695V16.1739C24.0802 15.7588 23.928 15.3607 23.6571 15.0671C23.3861 14.7736 23.0186 14.6087 22.6354 14.6087ZM18.301 14.0869H20.2274V14.6087H18.301V14.0869ZM23.117 20.8695C23.117 21.0079 23.0663 21.1406 22.976 21.2385C22.8856 21.3363 22.7631 21.3913 22.6354 21.3913H15.8929C15.7652 21.3913 15.6427 21.3363 15.5524 21.2385C15.4621 21.1406 15.4113 21.0079 15.4113 20.8695V17.9426L17.6652 18.7826C17.7164 18.7901 17.7682 18.7901 17.8194 18.7826H20.709C20.7612 18.7815 20.8131 18.7728 20.8631 18.7565L23.117 17.9426V20.8695ZM23.117 16.8417L20.6319 17.7391H17.8964L15.4113 16.8417V16.1739C15.4113 16.0355 15.4621 15.9028 15.5524 15.805C15.6427 15.7071 15.7652 15.6522 15.8929 15.6522H22.6354C22.7631 15.6522 22.8856 15.7071 22.976 15.805C23.0663 15.9028 23.117 16.0355 23.117 16.1739V16.8417Z" fill="#1D262D"/>
</svg>
